<?xml version="1.0" encoding="iso-8859-1"?>
<!-- Uploaded to: SVG Repo, www.svgrepo.com, Generator: SVG Repo Mixer Tools -->
<svg height="800px" width="800px" version="1.1" id="Layer_1" xmlns="http://www.w3.org/2000/svg" xmlns:xlink="http://www.w3.org/1999/xlink" 
	 viewBox="0 0 512 512" xml:space="preserve">
<g>
	<path style="fill:#6BBAE2;" d="M474.379,294.803c-8.893-3.507-13.217-13.542-9.708-22.434
		c28.063-70.647,6.772-140.724-38.913-186.245c-47.886-47.723-122.694-68.525-195.218-34.507
		c-8.647,4.079-18.926,0.326-23.005-8.322c-4.079-8.647-0.407-19.008,8.32-23.005C302.901-20.581,392.474,4.383,450.15,61.732
		c54.822,54.495,80.437,138.521,46.663,223.364C493.305,293.987,483.189,298.393,474.379,294.803z"/>
	<path style="fill:#6BBAE2;" d="M423.229,245.122c-10.605,0-18.682-9.382-17.213-19.661c4.894-35.079-7.913-67.14-30.429-89.166
		c-22.678-22.026-55.311-33.773-89.818-27.982c-9.382,1.549-18.355-4.813-19.906-14.195c-1.631-9.464,4.731-18.437,14.113-19.987
		c46.255-7.751,89.819,8.076,120.084,37.689c29.94,29.287,46.746,72.035,40.218,118.371
		C439.056,238.921,431.714,245.121,423.229,245.122z"/>
</g>
<path style="fill:#C5DCFD;" d="M447.458,464.162l-155-155l40.789-40.789c18.022-18.022,47.242-18.022,65.264,0l89.737,89.737
	c18.022,18.022,18.022,47.242,0,65.264L447.458,464.162z"/>
<path style="fill:#B1C6E4;" d="M263.905,476.398c-83.493-83.493-144.194-144.194-228.421-228.421
	c-47.274-47.274-47.35-123.966,0-171.315C48.903,63.242,58.659,53.487,72.195,39.95l155,155l-24.473,24.473l89.737,89.737
	l24.475-24.472l154.999,154.999c-7.808,7.808-28.903,28.903-36.711,36.711C387.947,523.672,311.255,523.748,263.905,476.398z"/>
<path style="fill:#9DB0CA;" d="M292.457,309.161l-44.869-44.869l-97.895,97.895c36.232,36.232,72.358,72.358,114.211,114.211
	c47.35,47.35,124.043,47.274,171.315,0c7.808-7.808,28.903-28.903,36.711-36.711L316.933,284.689L292.457,309.161z"/>
<path style="fill:#DBE9FD;" d="M202.721,219.425L47.72,64.424l40.789-40.789c18.022-18.022,47.242-18.022,65.264,0l89.737,89.737
	c18.022,18.022,18.022,47.242,0,65.264L202.721,219.425z"/>
<g>
	<path style="fill:#60AED5;" d="M423.229,245.122c-10.605,0-18.682-9.382-17.213-19.661c4.894-35.079-7.913-67.14-30.429-89.166
		l24.473-24.473c29.94,29.287,46.746,72.035,40.218,118.371C439.056,238.921,431.714,245.121,423.229,245.122z"/>
	<path style="fill:#60AED5;" d="M474.379,294.803c-8.893-3.507-13.217-13.542-9.708-22.434
		c28.063-70.647,6.772-140.724-38.913-186.245l24.392-24.392c54.822,54.495,80.437,138.521,46.663,223.364
		C493.305,293.987,483.189,298.393,474.379,294.803z"/>
</g>
</svg>